<?xml version="1.0" encoding="UTF-8" standalone="no"?>
<svg
   width="16"
   height="16"
   version="1.1"
   viewBox="0 0 16 16"
   id="svg91"
   sodipodi:docname="app-inkscape.svg"
   inkscape:version="1.1.2 (0a00cf5339, 2022-02-04)"
   xmlns:inkscape="http://www.inkscape.org/namespaces/inkscape"
   xmlns:sodipodi="http://sodipodi.sourceforge.net/DTD/sodipodi-0.dtd"
   xmlns="http://www.w3.org/2000/svg"
   xmlns:svg="http://www.w3.org/2000/svg">
  <defs
     id="defs95" />
  <sodipodi:namedview
     id="namedview93"
     pagecolor="#ffffff"
     bordercolor="#666666"
     borderopacity="1.0"
     inkscape:pageshadow="2"
     inkscape:pageopacity="0.0"
     inkscape:pagecheckerboard="0"
     showgrid="false"
     inkscape:zoom="107.875"
     inkscape:cx="7.7682503"
     inkscape:cy="8"
     inkscape:window-width="2689"
     inkscape:window-height="2003"
     inkscape:window-x="2892"
     inkscape:window-y="721"
     inkscape:window-maximized="0"
     inkscape:current-layer="svg91" />
  <path
     d="M 2.5,1 C 2.22,1 2,1.22 2,1.5 v 13 C 2,14.78 2.22,15 2.5,15 h 11 C 13.78,15 14,14.78 14,14.5 V 4 L 11,1 Z"
     fill="#dc5047"
     id="path81" />
  <g
     fill="#ffffff"
     aria-label="PDF"
     id="g89"
     transform="translate(2.3e-4)">
    <path
       d="M 4.9093,8.443 V 9.5 H 4.29117 v -3 h 1.1703 q 0.33791,0 0.59341,0.12363 0.25755,0.12363 0.3956,0.35234 0.13805,0.22665 0.13805,0.51717 0,0.44093 -0.30288,0.69643 Q 5.98483,8.443 5.45117,8.443 Z m 0,-0.50069 h 0.5522 q 0.24519,0 0.37294,-0.11538 Q 5.96425,7.71155 5.96425,7.49726 5.96425,7.27679 5.83444,7.1408 5.70463,7.00481 5.47592,7.00069 H 4.9093 Z"
       id="path83" />
    <path
       d="m 7.011,9.5 v -3 h 0.92308 q 0.3956,0 0.70673,0.17926 0.31319,0.1772 0.48832,0.50687 0.17514,0.32761 0.17514,0.74588 v 0.13805 q 0,0.41827 -0.17308,0.74382 Q 8.96017,9.13943 8.64699,9.31869 8.3338,9.49795 7.94026,9.50001 Z M 7.62913,7.0007 v 2.0027 h 0.29876 q 0.36264,0 0.55426,-0.23695 Q 8.67377,8.5295 8.67789,8.08857 V 7.92992 Q 8.67789,7.4725 8.48833,7.23761 8.29877,7.00066 7.93407,7.00066 Z"
       id="path85" />
    <path
       d="M 11.56,8.274 H 10.3732 V 9.5 H 9.75507 v -3 h 1.9533 v 0.50069 h -1.3352 v 0.77473 h 1.1868 z"
       id="path87" />
  </g>
  <path
     d="M 6,1 H 9.9999999 V 8 H 15 L 8,15 1,8 h 5 z"
     id="path177"
     style="mix-blend-mode:multiply;fill:#000000;fill-opacity:0.4563823" />
</svg>
